{
    "asset" : {
        "generator" : "Khronos glTF Blender I/O v1.4.40",
        "version" : "2.0"
    },
    "scene" : 0,
    "scenes" : [
        {
            "name" : "Scene",
            "nodes" : [
                0
            ]
        }
    ],
    "nodes" : [
        {
            "mesh" : 0,
            "name" : "Logo.001",
            "rotation" : [
                0,
                -0.035291463136672974,
                0,
                0.9993770718574524
            ],
            "scale" : [
                1.105820894241333,
                1.122804880142212,
                1.105820894241333
            ],
            "translation" : [
                -3.6623830795288086,
                10.11771011352539,
                -20.990215301513672
            ]
        }
    ],
    "materials" : [
        {
            "doubleSided" : true,
            "emissiveFactor" : [
                0.03298969265726415,
                0,
                0.09905225924124572
            ],
            "name" : "Material.001",
            "pbrMetallicRoughness" : {
                "baseColorFactor" : [
                    0.03846317529678345,
                    0.007765164133161306,
                    0.8000000715255737,
                    1
                ],
                "metallicFactor" : 0.6535433530807495,
                "roughnessFactor" : 0.4488189220428467
            }
        }
    ],
    "meshes" : [
        {
            "name" : "Cube.005",
            "primitives" : [
                {
                    "attributes" : {
                        "POSITION" : 0,
                        "NORMAL" : 1,
                        "TEXCOORD_0" : 2
                    },
                    "indices" : 3,
                    "material" : 0
                }
            ]
        }
    ],
    "accessors" : [
        {
            "bufferView" : 0,
            "componentType" : 5126,
            "count" : 2380,
            "max" : [
                2.3724677562713623,
                1.962017297744751,
                0.15929216146469116
            ],
            "min" : [
                -2.6017985343933105,
                -2.5211708545684814,
                -0.17707513272762299
            ],
            "type" : "VEC3"
        },
        {
            "bufferView" : 1,
            "componentType" : 5126,
            "count" : 2380,
            "type" : "VEC3"
        },
        {
            "bufferView" : 2,
            "componentType" : 5126,
            "count" : 2380,
            "type" : "VEC2"
        },
        {
            "bufferView" : 3,
            "componentType" : 5123,
            "count" : 3588,
            "type" : "SCALAR"
        }
    ],
    "bufferViews" : [
        {
            "buffer" : 0,
            "byteLength" : 28560,
            "byteOffset" : 0
        },
        {
            "buffer" : 0,
            "byteLength" : 28560,
            "byteOffset" : 28560
        },
        {
            "buffer" : 0,
            "byteLength" : 19040,
            "byteOffset" : 57120
        },
        {
            "buffer" : 0,
            "byteLength" : 7176,
            "byteOffset" : 76160
        }
    ],
    "buffers" : [
        {
            "byteLength" : 83336,
            "uri" : "data:application/octet-stream;base64,"
        }
    ]
}
