{
    "asset" : {
        "generator" : "Khronos glTF Blender I/O v1.4.40",
        "version" : "2.0"
    },
    "scene" : 0,
    "scenes" : [
        {
            "name" : "Scene",
            "nodes" : [
                0
            ]
        }
    ],
    "nodes" : [
        {
            "mesh" : 0,
            "name" : "Logo.001",
            "rotation" : [
                0,
                -0.035291463136672974,
                0,
                0.9993770718574524
            ],
            "scale" : [
                1.105820894241333,
                1.122804880142212,
                1.105820894241333
            ],
            "translation" : [
                -3.654062032699585,
                10.020781517028809,
                -20.90680503845215
            ]
        }
    ],
    "animations" : [
        {
            "channels" : [
                {
                    "sampler" : 0,
                    "target" : {
                        "node" : 0,
                        "path" : "rotation"
                    }
                }
            ],
            "name" : "CubeAction.001",
            "samplers" : [
                {
                    "input" : 4,
                    "interpolation" : "LINEAR",
                    "output" : 5
                }
            ]
        }
    ],
    "materials" : [
        {
            "doubleSided" : true,
            "emissiveFactor" : [
                0.03298969265726415,
                0,
                0.09905225924124572
            ],
            "name" : "Material.001",
            "pbrMetallicRoughness" : {
                "baseColorFactor" : [
                    0.03846317529678345,
                    0.007765164133161306,
                    0.8000000715255737,
                    1
                ],
                "metallicFactor" : 0.6535433530807495,
                "roughnessFactor" : 0.4488189220428467
            }
        }
    ],
    "meshes" : [
        {
            "name" : "Cube.005",
            "primitives" : [
                {
                    "attributes" : {
                        "POSITION" : 0,
                        "NORMAL" : 1,
                        "TEXCOORD_0" : 2
                    },
                    "indices" : 3,
                    "material" : 0
                }
            ]
        }
    ],
    "accessors" : [
        {
            "bufferView" : 0,
            "componentType" : 5126,
            "count" : 2383,
            "max" : [
                2.4482476711273193,
                2.048344373703003,
                0.16111986339092255
            ],
            "min" : [
                -2.5260186195373535,
                -2.4348437786102295,
                -0.1752474308013916
            ],
            "type" : "VEC3"
        },
        {
            "bufferView" : 1,
            "componentType" : 5126,
            "count" : 2383,
            "type" : "VEC3"
        },
        {
            "bufferView" : 2,
            "componentType" : 5126,
            "count" : 2383,
            "type" : "VEC2"
        },
        {
            "bufferView" : 3,
            "componentType" : 5123,
            "count" : 3588,
            "type" : "SCALAR"
        },
        {
            "bufferView" : 4,
            "componentType" : 5126,
            "count" : 90,
            "max" : [
                3
            ],
            "min" : [
                0.03333333333333333
            ],
            "type" : "SCALAR"
        },
        {
            "bufferView" : 5,
            "componentType" : 5126,
            "count" : 90,
            "type" : "VEC4"
        }
    ],
    "bufferViews" : [
        {
            "buffer" : 0,
            "byteLength" : 28596,
            "byteOffset" : 0
        },
        {
            "buffer" : 0,
            "byteLength" : 28596,
            "byteOffset" : 28596
        },
        {
            "buffer" : 0,
            "byteLength" : 19064,
            "byteOffset" : 57192
        },
        {
            "buffer" : 0,
            "byteLength" : 7176,
            "byteOffset" : 76256
        },
        {
            "buffer" : 0,
            "byteLength" : 360,
            "byteOffset" : 83432
        },
        {
            "buffer" : 0,
            "byteLength" : 1440,
            "byteOffset" : 83792
        }
    ],
    "buffers" : [
        {
            "byteLength" : 85232,
            "uri" : "data:application/octet-stream;base64,"
        }
    ]
}
